<?xml version="1.0" encoding="utf-8"?>
<!-- Generator: Adobe Illustrator 23.0.3, SVG Export Plug-In . SVG Version: 6.00 Build 0)  -->
<svg version="1.1" id="Layer_1" xmlns="http://www.w3.org/2000/svg" xmlns:xlink="http://www.w3.org/1999/xlink" x="0px" y="0px"
	 viewBox="0 0 460 500" style="enable-background:new 0 0 460 500;" xml:space="preserve">
<style type="text/css">
	.st0{fill:#F3F3F3;}
	.st1{fill:#403E56;}
	.st2{fill:#FFFFFF;}
	.st3{fill:#9F626B;}
	.st4{fill:#302E41;}
	.st5{fill:#E6E6E5;}
	.st6{fill:#CACACA;}
	.st7{opacity:0.2;fill:#010101;enable-background:new    ;}
	.st8{fill:#6EAADC;}
</style>
<g>
	<path class="st0" d="M354.9,404.3l5.9-22.1c11.6-3.2,23.7-3.6,35.5-1c-19.1,9.6-22.7,35.5-37.6,50.8c-9.5,9.6-22.8,14.4-36.2,13
		l-15.3,5.3c0.9-21.7,11.3-42,28.4-55.4c4.8-3.7,10-6.7,15.5-9.1C352.4,394.9,354.9,404.3,354.9,404.3z"/>
	<path class="st0" d="M77.1,372.9l-10-37.2c-19.5-5.4-40.1-6.1-59.9-1.8c32.2,16.2,38.3,59.9,63.4,85.7c16,16.2,38.5,24.2,61.1,21.9
		l25.9,8.9c-1.5-36.7-19-70.8-47.9-93.5c-8.1-6.2-16.9-11.4-26.2-15.4C81.2,357.1,77.1,372.9,77.1,372.9z"/>
	<path class="st1" d="M336.1,144.6L336.1,144.6V84.1c0-19.3-15.7-35-35-35l0,0H172.9c-19.3,0-35,15.7-35,35v331.8
		c0,19.3,15.7,35,35,35H301c19.3,0,35-15.7,35-35V187.6l0,0c1.2,0,2.2-1,2.2-2.2v0v-38.6C338.3,145.5,337.3,144.6,336.1,144.6z"/>
	<path class="st2" d="M328.6,84.3v331.3c0,14.3-11.5,26-25.9,26.1c-0.1,0-0.2,0-0.3,0H173.7c-14.4,0-26.1-11.7-26.1-26.1V84.3
		c0-14.4,11.7-26.1,26.1-26.1h15.6c-2.6,6.4,0.5,13.6,6.8,16.2c1.5,0.6,3.1,0.9,4.7,0.9h73.4c6.9,0,12.4-5.6,12.4-12.5
		c0-1.6-0.3-3.2-0.9-4.6h16.7C316.9,58.2,328.6,69.9,328.6,84.3z"/>
	<path class="st1" d="M138.6,178.4c-1.6,0-3-1.3-3-3v-20.3c0-1.6,1.3-3,3-3c1.6,0,3,1.3,3,3v20.3
		C141.6,177.1,140.3,178.4,138.6,178.4z"/>
	<path class="st1" d="M138,139.1c-1.6,0-3-1.3-3-3v-20.3c0-1.6,1.3-3,3-3c1.6,0,3,1.3,3,3v20.3C141,137.7,139.7,139.1,138,139.1z"/>
	<path class="st2" d="M217.3,61.6c0-1.6,1.3-3,3-3h20.3c1.6,0,3,1.3,3,3c0,1.6-1.3,3-3,3h-20.3C218.6,64.6,217.3,63.2,217.3,61.6z"
		/>
	<path class="st1" d="M138.6,212.9c-1.6,0-3-1.3-3-3v-20.3c0-1.6,1.3-3,3-3c1.6,0,3,1.3,3,3V210
		C141.6,211.6,140.3,212.9,138.6,212.9z"/>
	<circle class="st2" cx="251.8" cy="61.6" r="3"/>
	<polygon class="st3" points="224.1,428.9 232.1,428.9 235.9,398 224.1,398 	"/>
	<path class="st4" d="M222.1,426.3l2.3,0l8.8-3.6l4.7,3.6h0c5.6,0,10.1,4.5,10.1,10.1v0.3l-25.9,0L222.1,426.3z"/>
	<polygon class="st3" points="261.4,428.9 269.4,428.9 273.2,398 261.4,398 	"/>
	<path class="st4" d="M259.3,426.3l2.3,0l8.8-3.6l4.7,3.6h0c5.6,0,10.1,4.5,10.1,10.1v0.3l-25.9,0L259.3,426.3z"/>
	<path class="st4" d="M267.8,259.6l-63,1.6l1.1,30.7c0,0-1.1,8.2,1.1,10.4c2.2,2.2,3.3,2.2,2.2,6c-1.1,3.8,4.7,10.1,4,10.8
		c-0.7,0.7-2.3,4.5-2.3,4.5l5.5,31.2c0,0,3.8,54.2,4.9,55.3c1.1,1.1,2.2,0,1.1,2.7c-1.1,2.7-2.2,1.6-1.1,2.7c1,1,1.9,2.1,2.7,3.3
		h13.2c0,0,1-5.5,1-6c0-0.5,1.1-3.8,1.1-4.4c0-0.5-1-1.5-1-1.5c-0.3-1.1-0.6-2.3-0.7-3.4c0-1.1-3.3-43.3-3.3-43.3l6.6-54.8
		l15.9,53.7c0,0,0,47.1,1.1,48.2c1.1,1.1,1.1,0.5,0.5,2.7s-2.7,1.6-1.1,3.3c1.6,1.6,2.2-1.1,1.6,1.6l-0.5,2.7l16.4,0.2
		c0,0,2.2-4.6,1.1-6.3s-1-1.2,0.3-3.9c1.3-2.7,1.9-3.2,1.3-3.8c-0.5-0.5-0.5-3.5-0.5-3.5l-2.7-52.4c0,0-0.5-55.3-0.5-57
		c0-0.8,0.1-1.7,0.5-2.5v-2.2l-2.1-7.9L267.8,259.6z"/>
	<circle class="st3" cx="218.5" cy="132.6" r="17"/>
	<path class="st4" d="M210.8,144.2l-0.7-0.6c0,0-1.3-1-2.6-0.9c-0.6,0.1-1.1,0.4-1.4,0.9c-0.2,0.3-0.5,0.4-0.8,0.4
		c-1.6-0.3-4.5-5-6-9.8c-0.9-3-2-8.3,1-11.2c0.2-1.3,2.6-13,12.9-13.3c10.6-0.3,17.7,1.8,19.4,5.9c0.3,0.7,0.6,1.5,0.9,2.4
		c0.3,0.9,0,1.9-0.6,2.6c-0.6,0.6-1.5,0.9-2.4,0.7c-0.1,0.5-0.2,1-0.4,1.5c-0.9,2-3.3,3.3-5.9,3.3c-1.6,0-3.2-0.3-4.7-0.9l4.3,3.3
		l-10.3-1.3l3.4,1.8l-0.7,0.3c-4.3,1.9-6.8,6.5-6,11.1L210.8,144.2z"/>
	<path class="st5" d="M264.7,251.5c2.4-4.1,0.1-10.1,0.1-10.1s6.2-9.1,4.7-13l-7.3-56.4c0,0-2.3-6.1-7.6-9.1
		c-1.5-0.8-9.1-0.5-10.8-0.5l-5.4-2.3c-0.3,1.2-6.3-10.9-6.3-9.7c-3.8,0-6.2,0.5-12.1,1.5c-10.2,1.7-5.1,11-4.4,12.1
		c-0.3,0-0.5,0.1-0.8,0.1c-1.3,0.3-5.9,4.2-5.9,4.2l-8.1,7.2c-12.3,9.6-9.5,24.6-9.5,24.6l17.9,18l-7.8,36.1c0,0,3.3,5.4,1.6,7.8
		s15.2,1.7,15.2,1.7c11.7,5.2,52.7,0.8,52.7,0.8C270.2,263,264.7,251.5,264.7,251.5z"/>
	<path class="st6" d="M4.7,450.9h450.6c0.4,0,0.8-0.4,0.8-0.8c0-0.4-0.4-0.8-0.8-0.8H4.7c-0.4,0-0.8,0.4-0.8,0.8
		C3.9,450.6,4.2,450.9,4.7,450.9z"/>
	<path class="st1" d="M300.3,433.7c0,3.4-0.1,6.8-0.3,10.2c-0.1,0-0.2,0-0.3,0H170.9c-12,0-22.4-8.2-25.4-19.8c-0.2-1-0.4-2-0.6-3
		c-0.1-1.1-0.2-2.2-0.2-3.4V270.1c9.9,0.5,19.7,1.9,29.4,4.2c0.9,0.2,1.9,0.4,2.8,0.7c0.1,0,0.1,0,0.2,0c0.9,0.2,1.9,0.5,2.8,0.7
		c19.9,5.5,38.6,14.7,55.1,27.1c0.9,0.7,1.9,1.4,2.8,2.2l0.2,0.1c1.6,1.2,3.1,2.5,4.6,3.8c0.3,0.3,0.7,0.6,1,0.9
		c0.8,0.7,1.6,1.4,2.4,2.1c17.6,15.8,31.5,35.2,40.9,56.9c0.3,0.7,0.6,1.4,0.9,2.1c0.1,0.3,0.2,0.6,0.4,0.9c0.1,0.3,0.2,0.5,0.3,0.8
		C296.3,392.1,300.3,412.8,300.3,433.7z"/>
	<path class="st7" d="M240.8,419c0-26,21.1-47.1,47.1-47.1c0,0,0,0,0,0h0.2c-0.1-0.3-0.2-0.6-0.4-0.9c-0.3-0.7-0.6-1.4-0.9-2.1
		h-46.1v-59.1h2.8c-0.3-0.3-0.7-0.6-1-0.9c-1.5-1.3-3.1-2.6-4.6-3.8l-0.2-0.1v1.8H180v-31.1c-0.9-0.3-1.9-0.5-2.8-0.7
		c-0.1,0-0.1,0-0.2,0v31.9h-29.4v3H177v59.1h-29.4v3H177V419h-29.2c0.1,1,0.3,2,0.6,3H177v19.8h3V422h57.9v19.8h3V422h50.5v-3H240.8
		z M237.8,419H180v-47.1h57.9V419z M237.8,368.9H180v-1.2c0-32,25.9-57.9,57.9-57.9V368.9z"/>
	<path class="st3" d="M206.1,291.7c-2.2-2.5-2-6.4,0.5-8.6c0.3-0.2,0.6-0.5,0.9-0.6l-7.7-30.3l10.6,4l5.9,28.6
		c1.6,3,0.4,6.7-2.6,8.3C211,294.4,207.9,293.8,206.1,291.7z"/>
	<path class="st5" d="M191.9,194.4l-1,12.1c0,0-1.2,13.3-0.9,15.8c0.3,2.5,0.9,17.5,0.9,17.5l10,19.9l11.4-3l-0.7-9.3l0.7,8.6
		l1.5-7.6l-3.8-12.9l2.3-4.6l-1.1-15.3L191.9,194.4z"/>
	<path class="st8" d="M453.5,276.1c-1.3-1.6-3.2-2.6-5.3-2.8c-0.3,0-0.6,0-0.9,0l-152.5-0.1c-2.2,0-4.4,0.9-5.9,2.5
		c-1.5,1.6-2.3,3.7-2.2,5.8l0,24.8c0,4.5,1,8.9,2.8,13c-1.1,4-2.8,7.8-5.2,11.1c-2.2,3.1-1.4,7.4,1.7,9.6c1.3,0.9,2.8,1.3,4.4,1.2
		c1.6-0.1,3.2-0.3,4.8-0.5c4.6-0.7,9-2.4,12.9-5c3,0.9,6.1,1.4,9.3,1.4l107.2,0.1c8.2,0,16-3.2,21.8-9c5.8-5.9,9-13.9,9-22.2l0-24.3
		C455.5,279.6,454.8,277.6,453.5,276.1z"/>
	<path class="st2" d="M413.7,295.6l-85.2-0.1c-1,0-1.9-0.8-1.9-1.9c0-1,0.8-1.9,1.9-1.9l85.2,0.1c1,0,1.9,0.8,1.9,1.9
		C415.5,294.7,414.7,295.6,413.7,295.6z"/>
	<path class="st2" d="M413.7,306.9l-85.2-0.1c-1,0-1.9-0.8-1.9-1.9c0-1,0.8-1.9,1.9-1.9l85.2,0.1c1,0,1.9,0.8,1.9,1.9
		C415.5,306.1,414.7,306.9,413.7,306.9L413.7,306.9L413.7,306.9z"/>
	<path class="st2" d="M338.3,318.3l-9.9,0c-1,0-1.9-0.8-1.9-1.9c0-1,0.8-1.9,1.9-1.9l9.9,0c1,0,1.9,0.8,1.9,1.9
		C340.2,317.4,339.4,318.3,338.3,318.3z"/>
	<path class="st8" d="M6,180.2c1.3-1.6,3.2-2.6,5.3-2.8c0.3,0,0.6,0,0.9,0l152.5-0.1c2.2,0,4.4,0.9,5.9,2.5c1.5,1.6,2.3,3.7,2.2,5.8
		l0,24.8c0,4.5-1,8.9-2.8,13c1.1,4,2.8,7.8,5.2,11.1c2.2,3.1,1.4,7.4-1.7,9.6c-1.3,0.9-2.8,1.3-4.4,1.2c-1.6-0.1-3.2-0.3-4.8-0.5
		c-4.6-0.7-9-2.4-12.9-5c-3,0.9-6.1,1.4-9.3,1.4l-107.2,0.1c-8.2,0-16-3.2-21.8-9c-5.8-5.9-9-13.9-9-22.2l0-24.3
		C4.1,183.7,4.7,181.7,6,180.2z"/>
	<path class="st2" d="M44,197.8c0-1,0.8-1.9,1.9-1.9l85.2-0.1c1,0,1.9,0.8,1.9,1.9c0,1-0.8,1.8-1.8,1.9l-85.2,0.1
		C44.8,199.7,44,198.8,44,197.8z"/>
	<path class="st2" d="M44,209.2c0-1,0.8-1.9,1.9-1.9l85.2-0.1c1,0,1.9,0.8,1.9,1.9c0,1-0.8,1.9-1.9,1.9L45.9,211
		C44.8,211,44,210.2,44,209.2z"/>
	<path class="st2" d="M119.3,220.5c0-1,0.8-1.9,1.9-1.9l9.9,0c1,0,1.9,0.8,1.9,1.9c0,1-0.8,1.9-1.9,1.9l0,0l-9.9,0
		C120.2,222.4,119.3,221.5,119.3,220.5z"/>
	<path class="st3" d="M313.2,122.8c-3.2,1.6-4.5,5.5-2.9,8.7c0.2,0.3,0.4,0.7,0.6,1l-13,19.1l12,0.2l10.5-18.2
		c2.7-2.3,3.1-6.5,0.7-9.2C319.2,122.1,315.9,121.5,313.2,122.8L313.2,122.8z"/>
	<path class="st5" d="M317.3,140.9l-20,36.7l-0.2,0c-0.1,0-6.5,0.4-14.3,0.9c-1.3,0.1-2.1,2.4-3.4,2.5c-0.9,0-4.4,4.4-5.4,4.5
		c-8.5,0.4-13.3,4.3-16.5,4c-4.4-0.4-10.2-12.4-13.3-15.4l-0.1-0.1l0-0.1c-0.5-4.5,2.3-8.8,6.6-10.2c10.2-3.3,21-4.2,31.5-2.6l6,0.9
		l18.3-24.5L317.3,140.9z"/>
	<path class="st8" d="M425.1,69.7c-1.3-1.6-3.2-2.6-5.3-2.8c-0.3,0-0.6,0-0.9,0l-152.5-0.1c-2.2,0-4.4,0.9-5.9,2.5
		c-1.5,1.6-2.3,3.7-2.2,5.8l0,24.8c0,4.5,1,8.9,2.8,13c-1.1,4-2.8,7.8-5.2,11.1c-2.2,3.1-1.4,7.4,1.7,9.6c1.3,0.9,2.8,1.3,4.4,1.2
		c1.6-0.1,3.2-0.3,4.8-0.5c4.6-0.7,9-2.4,12.9-5c3,0.9,6.1,1.4,9.3,1.4l107.2,0.1c8.2,0,16-3.2,21.8-9c5.8-5.9,9-13.9,9-22.2l0-24.3
		C427,73.3,426.4,71.3,425.1,69.7z"/>
	<path class="st2" d="M385.2,89.2L300,89.1c-1,0-1.9-0.8-1.9-1.9s0.8-1.9,1.9-1.9c0,0,0,0,0,0l85.2,0.1c1,0,1.9,0.8,1.9,1.9
		C387.1,88.4,386.3,89.2,385.2,89.2z"/>
	<path class="st2" d="M385.2,100.6l-85.2-0.1c-1,0-1.9-0.8-1.9-1.9c0-1,0.8-1.9,1.9-1.9l85.2,0.1c1,0,1.9,0.8,1.9,1.9
		C387.1,99.8,386.2,100.6,385.2,100.6L385.2,100.6z"/>
	<path class="st2" d="M309.9,111.9l-9.9,0c-1,0-1.9-0.8-1.9-1.9c0-1,0.8-1.9,1.9-1.9c0,0,0,0,0,0l9.9,0c1,0,1.9,0.8,1.8,1.9
		C311.8,111.1,310.9,111.9,309.9,111.9L309.9,111.9z"/>
</g>
</svg>
